<svg width="152" height="45" viewBox="0 0 152 45" fill="none" xmlns="http://www.w3.org/2000/svg">
<path d="M2.01548 7.8106H8.06194L14.4481 23.391H14.7198L21.106 7.8106H27.1524V31H22.3968V15.9065H22.2043L16.2031 30.8868H12.9648L6.96361 15.8499H6.77112V31H2.01548V7.8106ZM38.3217 31.3397C36.5629 31.3397 35.0418 30.966 33.7586 30.2187C32.4829 29.4639 31.4978 28.4146 30.8033 27.0709C30.1088 25.7197 29.7616 24.1534 29.7616 22.3719C29.7616 20.5753 30.1088 19.0052 30.8033 17.6616C31.4978 16.3104 32.4829 15.2611 33.7586 14.5138C35.0418 13.7589 36.5629 13.3815 38.3217 13.3815C40.0806 13.3815 41.5978 13.7589 42.8735 14.5138C44.1568 15.2611 45.1457 16.3104 45.8402 17.6616C46.5346 19.0052 46.8819 20.5753 46.8819 22.3719C46.8819 24.1534 46.5346 25.7197 45.8402 27.0709C45.1457 28.4146 44.1568 29.4639 42.8735 30.2187C41.5978 30.966 40.0806 31.3397 38.3217 31.3397ZM38.3444 27.6031C39.1445 27.6031 39.8126 27.3767 40.3485 26.9237C40.8845 26.4633 41.2883 25.8367 41.5601 25.0441C41.8394 24.2515 41.979 23.3495 41.979 22.3379C41.979 21.3264 41.8394 20.4244 41.5601 19.6318C41.2883 18.8392 40.8845 18.2126 40.3485 17.7522C39.8126 17.2917 39.1445 17.0615 38.3444 17.0615C37.5367 17.0615 36.8573 17.2917 36.3062 17.7522C35.7627 18.2126 35.3513 18.8392 35.072 19.6318C34.8003 20.4244 34.6644 21.3264 34.6644 22.3379C34.6644 23.3495 34.8003 24.2515 35.072 25.0441C35.3513 25.8367 35.7627 26.4633 36.3062 26.9237C36.8573 27.3767 37.5367 27.6031 38.3444 27.6031ZM54.2042 20.9452V31H49.3806V13.608H53.9777V16.6765H54.1815C54.5665 15.665 55.2119 14.8648 56.1178 14.276C57.0236 13.6797 58.1219 13.3815 59.4128 13.3815C60.6205 13.3815 61.6736 13.6457 62.5719 14.1741C63.4701 14.7025 64.1684 15.4574 64.6666 16.4387C65.1648 17.4125 65.4139 18.575 65.4139 19.9262V31H60.5903V20.7867C60.5979 19.7223 60.3261 18.892 59.7751 18.2957C59.224 17.6918 58.4654 17.3898 57.4992 17.3898C56.85 17.3898 56.2763 17.5295 55.7781 17.8088C55.2874 18.0881 54.9024 18.4957 54.6231 19.0316C54.3514 19.56 54.2117 20.1979 54.2042 20.9452ZM76.5039 31.3397C74.7149 31.3397 73.175 30.9774 71.8842 30.2527C70.6009 29.5205 69.612 28.4863 68.9176 27.1502C68.2231 25.8065 67.8759 24.2176 67.8759 22.3832C67.8759 20.5942 68.2231 19.0241 68.9176 17.6729C69.612 16.3217 70.5896 15.2687 71.8502 14.5138C73.1184 13.7589 74.6055 13.3815 76.3115 13.3815C77.4589 13.3815 78.527 13.5664 79.5159 13.9363C80.5123 14.2987 81.3804 14.8459 82.1201 15.5781C82.8674 16.3104 83.4487 17.2313 83.8639 18.3409C84.279 19.443 84.4866 20.7339 84.4866 22.2134V23.5382H69.8008V20.5489H79.9461C79.9461 19.8544 79.7952 19.2392 79.4932 18.7033C79.1913 18.1673 78.7723 17.7484 78.2364 17.4464C77.708 17.1369 77.0927 16.9822 76.3907 16.9822C75.6585 16.9822 75.0093 17.152 74.4432 17.4917C73.8846 17.8239 73.4468 18.273 73.1297 18.8392C72.8127 19.3978 72.6504 20.0205 72.6428 20.7074V23.5495C72.6428 24.41 72.8013 25.1536 73.1184 25.7801C73.443 26.4067 73.8997 26.8898 74.4885 27.2295C75.0773 27.5691 75.7755 27.739 76.5832 27.739C77.1192 27.739 77.6098 27.6635 78.0552 27.5125C78.5006 27.3616 78.8818 27.1351 79.1988 26.8332C79.5159 26.5312 79.7574 26.1613 79.9235 25.7235L84.3847 26.0179C84.1583 27.0898 83.694 28.0258 82.992 28.826C82.2975 29.6186 81.3992 30.2376 80.2971 30.683C79.2026 31.1208 77.9382 31.3397 76.5039 31.3397ZM86.9967 31V13.608H91.6731V16.6425H91.8542C92.1713 15.563 92.7035 14.7478 93.4508 14.1967C94.1981 13.6381 95.0586 13.3588 96.0324 13.3588C96.274 13.3588 96.5344 13.3739 96.8137 13.4041C97.093 13.4343 97.3383 13.4759 97.5497 13.5287V17.8088C97.3232 17.7408 97.01 17.6804 96.6099 17.6276C96.2098 17.5748 95.8437 17.5483 95.5116 17.5483C94.802 17.5483 94.1679 17.7031 93.6093 18.0126C93.0582 18.3145 92.6204 18.7372 92.2958 19.2807C91.9788 19.8243 91.8203 20.4508 91.8203 21.1604V31H86.9967ZM106.522 31.3397C104.733 31.3397 103.193 30.9774 101.903 30.2527C100.619 29.5205 99.6304 28.4863 98.936 27.1502C98.2415 25.8065 97.8942 24.2176 97.8942 22.3832C97.8942 20.5942 98.2415 19.0241 98.936 17.6729C99.6304 16.3217 100.608 15.2687 101.869 14.5138C103.137 13.7589 104.624 13.3815 106.33 13.3815C107.477 13.3815 108.545 13.5664 109.534 13.9363C110.531 14.2987 111.399 14.8459 112.139 15.5781C112.886 16.3104 113.467 17.2313 113.882 18.3409C114.297 19.443 114.505 20.7339 114.505 22.2134V23.5382H99.8191V20.5489H109.965C109.965 19.8544 109.814 19.2392 109.512 18.7033C109.21 18.1673 108.791 17.7484 108.255 17.4464C107.726 17.1369 107.111 16.9822 106.409 16.9822C105.677 16.9822 105.028 17.152 104.462 17.4917C103.903 17.8239 103.465 18.273 103.148 18.8392C102.831 19.3978 102.669 20.0205 102.661 20.7074V23.5495C102.661 24.41 102.82 25.1536 103.137 25.7801C103.461 26.4067 103.918 26.8898 104.507 27.2295C105.096 27.5691 105.794 27.739 106.602 27.739C107.138 27.739 107.628 27.6635 108.074 27.5125C108.519 27.3616 108.9 27.1351 109.217 26.8332C109.534 26.5312 109.776 26.1613 109.942 25.7235L114.403 26.0179C114.177 27.0898 113.712 28.0258 113.01 28.826C112.316 29.6186 111.418 30.2376 110.316 30.683C109.221 31.1208 107.957 31.3397 106.522 31.3397Z" fill="white"/>
<path d="M84.6326 38.4907C84.6024 38.2227 84.4778 38.0152 84.2589 37.868C84.04 37.7189 83.7645 37.6443 83.4324 37.6443C83.1946 37.6443 82.9889 37.6821 82.8153 37.7576C82.6416 37.8312 82.5067 37.9331 82.4105 38.0633C82.3161 38.1916 82.2689 38.3379 82.2689 38.502C82.2689 38.6398 82.301 38.7587 82.3652 38.8587C82.4312 38.9587 82.5171 39.0427 82.6228 39.1107C82.7303 39.1767 82.8455 39.2324 82.9681 39.2777C83.0908 39.3211 83.2087 39.3569 83.322 39.3852L83.8881 39.5324C84.073 39.5777 84.2627 39.6391 84.4571 39.7164C84.6515 39.7938 84.8317 39.8957 84.9978 40.0222C85.1638 40.1486 85.2978 40.3052 85.3997 40.4921C85.5035 40.6789 85.5554 40.9025 85.5554 41.1629C85.5554 41.4913 85.4705 41.7829 85.3006 42.0376C85.1327 42.2924 84.8883 42.4934 84.5675 42.6406C84.2486 42.7878 83.8626 42.8614 83.4097 42.8614C82.9757 42.8614 82.6001 42.7925 82.2831 42.6547C81.966 42.517 81.7179 42.3217 81.5386 42.0688C81.3593 41.814 81.2602 41.5121 81.2414 41.1629H82.1189C82.1359 41.3724 82.2038 41.547 82.3227 41.6866C82.4435 41.8244 82.5973 41.9272 82.7841 41.9952C82.9728 42.0612 83.1795 42.0943 83.404 42.0943C83.6513 42.0943 83.8711 42.0556 84.0636 41.9782C84.258 41.8989 84.4108 41.7895 84.5222 41.6498C84.6335 41.5083 84.6892 41.3432 84.6892 41.1544C84.6892 40.9827 84.6401 40.8421 84.542 40.7327C84.4458 40.6232 84.3146 40.5326 84.1485 40.4609C83.9844 40.3892 83.7985 40.326 83.5909 40.2713L82.9058 40.0844C82.4416 39.958 82.0736 39.7721 81.8019 39.5268C81.532 39.2814 81.3971 38.9569 81.3971 38.553C81.3971 38.219 81.4876 37.9274 81.6688 37.6783C81.85 37.4292 82.0953 37.2358 82.4048 37.098C82.7143 36.9584 83.0634 36.8885 83.4522 36.8885C83.8447 36.8885 84.191 36.9574 84.4911 37.0952C84.793 37.2329 85.0308 37.4226 85.2044 37.6641C85.378 37.9038 85.4686 38.1793 85.4761 38.4907H84.6326ZM87.2501 42.7651V38.4171H88.0965V42.7651H87.2501ZM87.6776 37.7462C87.5304 37.7462 87.4039 37.6972 87.2983 37.599C87.1945 37.499 87.1426 37.3801 87.1426 37.2424C87.1426 37.1027 87.1945 36.9838 87.2983 36.8857C87.4039 36.7857 87.5304 36.7357 87.6776 36.7357C87.8248 36.7357 87.9503 36.7857 88.0541 36.8857C88.1598 36.9838 88.2126 37.1027 88.2126 37.2424C88.2126 37.3801 88.1598 37.499 88.0541 37.599C87.9503 37.6972 87.8248 37.7462 87.6776 37.7462ZM93.2108 39.4787L92.4437 39.6145C92.4116 39.5164 92.3606 39.423 92.2908 39.3343C92.2229 39.2456 92.1304 39.1729 92.0134 39.1163C91.8964 39.0597 91.7501 39.0314 91.5746 39.0314C91.335 39.0314 91.1349 39.0852 90.9745 39.1927C90.8141 39.2984 90.7339 39.4352 90.7339 39.6032C90.7339 39.7485 90.7877 39.8655 90.8953 39.9542C91.0028 40.0429 91.1764 40.1156 91.4161 40.1722L92.1068 40.3307C92.5069 40.4232 92.8051 40.5657 93.0013 40.7581C93.1976 40.9506 93.2957 41.2007 93.2957 41.5083C93.2957 41.7687 93.2202 42.0008 93.0693 42.2047C92.9202 42.4066 92.7116 42.5651 92.4437 42.6802C92.1776 42.7953 91.869 42.8529 91.518 42.8529C91.0311 42.8529 90.6339 42.7491 90.3263 42.5415C90.0187 42.332 89.83 42.0348 89.7601 41.6498L90.5782 41.5253C90.6292 41.7385 90.7339 41.8999 90.8924 42.0093C91.0509 42.1169 91.2576 42.1707 91.5124 42.1707C91.7898 42.1707 92.0115 42.1131 92.1776 41.998C92.3436 41.881 92.4267 41.7385 92.4267 41.5706C92.4267 41.4347 92.3757 41.3205 92.2738 41.228C92.1738 41.1356 92.02 41.0658 91.8124 41.0186L91.0764 40.8572C90.6707 40.7647 90.3706 40.6176 90.1762 40.4156C89.9838 40.2137 89.8875 39.958 89.8875 39.6485C89.8875 39.3918 89.9592 39.1673 90.1026 38.9748C90.2461 38.7823 90.4442 38.6323 90.6971 38.5247C90.95 38.4152 91.2397 38.3605 91.5661 38.3605C92.036 38.3605 92.4059 38.4624 92.6758 38.6662C92.9457 38.8682 93.124 39.139 93.2108 39.4787ZM96.9734 38.4171V39.0965H94.5984V38.4171H96.9734ZM95.2353 37.3754H96.0817V41.4885C96.0817 41.6527 96.1062 41.7763 96.1553 41.8593C96.2044 41.9404 96.2676 41.9961 96.345 42.0263C96.4242 42.0546 96.5101 42.0688 96.6026 42.0688C96.6705 42.0688 96.7299 42.0641 96.7809 42.0546C96.8318 42.0452 96.8715 42.0376 96.8998 42.032L97.0526 42.7312C97.0036 42.75 96.9338 42.7689 96.8432 42.7878C96.7526 42.8085 96.6394 42.8199 96.5035 42.8218C96.2808 42.8255 96.0732 42.7859 95.8807 42.7029C95.6882 42.6198 95.5325 42.4915 95.4136 42.3179C95.2948 42.1443 95.2353 41.9263 95.2353 41.664V37.3754ZM100.454 42.8529C100.026 42.8529 99.657 42.7614 99.3475 42.5783C99.0399 42.3934 98.8021 42.1339 98.6341 41.7999C98.4681 41.4639 98.385 41.0705 98.385 40.6194C98.385 40.1741 98.4681 39.7815 98.6341 39.4419C98.8021 39.1022 99.0361 38.837 99.3362 38.6464C99.6381 38.4558 99.991 38.3605 100.395 38.3605C100.64 38.3605 100.878 38.4011 101.108 38.4822C101.338 38.5634 101.545 38.6908 101.728 38.8644C101.911 39.038 102.056 39.2635 102.161 39.5409C102.267 39.8165 102.32 40.1514 102.32 40.5458V40.8459H98.8634V40.2118H101.49C101.49 39.9891 101.445 39.7919 101.354 39.6202C101.264 39.4466 101.137 39.3098 100.972 39.2097C100.81 39.1097 100.619 39.0597 100.401 39.0597C100.163 39.0597 99.9552 39.1182 99.7778 39.2352C99.6023 39.3503 99.4664 39.5013 99.3701 39.6881C99.2758 39.8731 99.2286 40.074 99.2286 40.2911V40.7865C99.2286 41.0771 99.2796 41.3243 99.3815 41.5281C99.4853 41.7319 99.6296 41.8876 99.8146 41.9952C99.9995 42.1009 100.216 42.1537 100.463 42.1537C100.623 42.1537 100.769 42.1311 100.902 42.0858C101.034 42.0386 101.148 41.9688 101.244 41.8763C101.34 41.7838 101.414 41.6696 101.465 41.5338L102.266 41.6781C102.202 41.914 102.087 42.1207 101.921 42.2981C101.756 42.4736 101.55 42.6104 101.301 42.7085C101.053 42.8048 100.771 42.8529 100.454 42.8529ZM103.976 42.7651V38.4171H104.789V39.1248H104.842C104.933 38.8851 105.081 38.6983 105.287 38.5643C105.493 38.4284 105.739 38.3605 106.026 38.3605C106.316 38.3605 106.56 38.4284 106.756 38.5643C106.954 38.7002 107.1 38.887 107.195 39.1248H107.24C107.344 38.8927 107.509 38.7077 107.736 38.57C107.962 38.4303 108.232 38.3605 108.545 38.3605C108.94 38.3605 109.261 38.4841 109.51 38.7313C109.761 38.9786 109.887 39.3513 109.887 39.8495V42.7651H109.04V39.9287C109.04 39.6343 108.96 39.4211 108.8 39.289C108.639 39.1569 108.448 39.0908 108.225 39.0908C107.95 39.0908 107.736 39.1758 107.583 39.3456C107.43 39.5136 107.353 39.7296 107.353 39.9938V42.7651H106.51V39.875C106.51 39.6391 106.436 39.4494 106.289 39.306C106.142 39.1626 105.95 39.0908 105.714 39.0908C105.554 39.0908 105.406 39.1333 105.27 39.2182C105.136 39.3013 105.027 39.4173 104.944 39.5664C104.863 39.7155 104.823 39.8882 104.823 40.0844V42.7651H103.976ZM113.004 42.8614C112.729 42.8614 112.479 42.8104 112.257 42.7085C112.034 42.6047 111.858 42.4547 111.727 42.2584C111.599 42.0622 111.535 41.8216 111.535 41.5366C111.535 41.2913 111.582 41.0893 111.676 40.9308C111.771 40.7723 111.898 40.6468 112.059 40.5543C112.219 40.4619 112.398 40.392 112.596 40.3449C112.795 40.2977 112.996 40.2618 113.202 40.2373C113.463 40.2071 113.674 40.1826 113.836 40.1637C113.999 40.1429 114.117 40.1099 114.19 40.0646C114.264 40.0193 114.301 39.9457 114.301 39.8438V39.824C114.301 39.5768 114.231 39.3852 114.091 39.2494C113.953 39.1135 113.748 39.0455 113.474 39.0455C113.189 39.0455 112.964 39.1088 112.8 39.2352C112.638 39.3598 112.526 39.4985 112.463 39.6513L111.668 39.4702C111.762 39.206 111.9 38.9927 112.081 38.8304C112.264 38.6662 112.475 38.5473 112.712 38.4737C112.95 38.3983 113.2 38.3605 113.463 38.3605C113.636 38.3605 113.82 38.3813 114.015 38.4228C114.211 38.4624 114.394 38.536 114.564 38.6436C114.736 38.7512 114.876 38.905 114.986 39.105C115.095 39.3031 115.15 39.5607 115.15 39.8778V42.7651H114.323V42.1707H114.289C114.234 42.2801 114.152 42.3877 114.043 42.4934C113.933 42.5991 113.793 42.6868 113.621 42.7566C113.449 42.8265 113.244 42.8614 113.004 42.8614ZM113.188 42.182C113.422 42.182 113.622 42.1358 113.788 42.0433C113.956 41.9508 114.083 41.83 114.17 41.681C114.259 41.53 114.303 41.3686 114.303 41.1969V40.6364C114.273 40.6666 114.215 40.6949 114.128 40.7213C114.043 40.7459 113.946 40.7676 113.836 40.7865C113.727 40.8034 113.62 40.8195 113.516 40.8346C113.413 40.8478 113.326 40.8591 113.256 40.8685C113.092 40.8893 112.942 40.9242 112.806 40.9733C112.672 41.0223 112.564 41.0931 112.483 41.1856C112.404 41.2762 112.364 41.3969 112.364 41.5479C112.364 41.7574 112.442 41.9159 112.596 42.0235C112.751 42.1292 112.948 42.182 113.188 42.182Z" fill="white"/>
<rect width="6.05254" height="11.8139" transform="matrix(0 -1 0.906308 -0.422618 123.805 37.5449)" fill="#0F7337"/>
<rect width="6.05254" height="15.8951" transform="matrix(0 -1 0.906308 -0.422618 123.805 29.7581)" fill="#0F7337"/>
<rect width="6.05254" height="20.4058" transform="matrix(0 -1 0.906308 -0.422618 123.805 21.9712)" fill="#0F7337"/>
<rect width="6.05254" height="11.8139" transform="matrix(0 -1 0.906308 -0.422618 132.95 37.4702)" fill="#0DCC5A"/>
<rect width="6.05254" height="15.8951" transform="matrix(0 -1 0.906308 -0.422618 132.95 29.6833)" fill="#0DCC5A"/>
<rect width="6.05254" height="20.4058" transform="matrix(0 -1 0.906308 -0.422618 132.95 21.8965)" fill="#0DCC5A"/>
</svg>
