<svg width="36" height="36" viewBox="0 0 36 36" fill="none" xmlns="http://www.w3.org/2000/svg">
<path d="M31.423 26.3846L21.7143 17.6154M13.3627 17.6154L3.65392 26.3846M2.9231 10.3077L14.8564 18.661C15.8228 19.3375 16.3059 19.6757 16.8315 19.8067C17.2957 19.9224 17.7812 19.9224 18.2455 19.8067C18.771 19.6757 19.2542 19.3375 20.2205 18.661L32.1539 10.3077M9.93848 29.3077H25.1385C27.5941 29.3077 28.8219 29.3077 29.7598 28.8298C30.5848 28.4094 31.2556 27.7387 31.676 26.9137C32.1539 25.9757 32.1539 24.7479 32.1539 22.2923V12.9385C32.1539 10.4829 32.1539 9.25504 31.676 8.31712C31.2556 7.4921 30.5848 6.82134 29.7598 6.40097C28.8219 5.92308 27.5941 5.92308 25.1385 5.92308H9.93848C7.48287 5.92308 6.25506 5.92308 5.31714 6.40097C4.49212 6.82134 3.82136 7.4921 3.40099 8.31712C2.9231 9.25504 2.9231 10.4829 2.9231 12.9385V22.2923C2.9231 24.7479 2.9231 25.9757 3.40099 26.9137C3.82136 27.7387 4.49212 28.4094 5.31714 28.8298C6.25506 29.3077 7.48287 29.3077 9.93848 29.3077Z" stroke="white" stroke-width="2.92308" stroke-linecap="round" stroke-linejoin="round"/>
</svg>
