<svg width="36" height="36" viewBox="0 0 36 36" fill="none" xmlns="http://www.w3.org/2000/svg">
<path d="M17.1102 4.89945C10.7923 5.48369 5.84561 10.7988 5.84561 17.2692C5.84561 18.6577 6.07339 19.9929 6.49361 21.2397C6.65175 21.7088 6.73082 21.9434 6.74508 22.1236C6.75917 22.3016 6.74852 22.4264 6.70449 22.5994C6.6599 22.7746 6.56147 22.9568 6.36459 23.3212L3.97402 27.7461C3.63302 28.3772 3.46253 28.6928 3.50069 28.9364C3.53392 29.1485 3.65878 29.3353 3.8421 29.4471C4.05256 29.5755 4.40935 29.5386 5.12294 29.4649L12.6075 28.6912C12.8341 28.6678 12.9475 28.656 13.0508 28.66C13.1524 28.6639 13.2241 28.6734 13.3232 28.6962C13.4239 28.7195 13.5506 28.7683 13.8039 28.8659C15.1895 29.3997 16.6949 29.6923 18.2687 29.6923C24.7445 29.6923 30.063 24.7374 30.6399 18.4121M29.4075 6.13038C31.1198 7.84268 31.1198 10.6189 29.4075 12.3312C27.6952 14.0435 24.9191 14.0435 23.2068 12.3312C21.4945 10.6189 21.4945 7.84268 23.2068 6.13038C24.9191 4.41808 27.6952 4.41808 29.4075 6.13038Z" stroke="white" stroke-width="2.92308" stroke-linecap="round" stroke-linejoin="round"/>
</svg>
