<svg width="16" height="17" viewBox="0 0 16 17" fill="none" xmlns="http://www.w3.org/2000/svg">
<g clip-path="url(#clip0_1361_9158)">
<path d="M14.6667 7.45412V8.06746C14.6658 9.50507 14.2003 10.9039 13.3395 12.0553C12.4788 13.2068 11.2688 14.0491 9.89022 14.4567C8.5116 14.8643 7.03815 14.8154 5.68963 14.3172C4.3411 13.819 3.18975 12.8982 2.40729 11.6922C1.62482 10.4861 1.25317 9.0595 1.34776 7.625C1.44235 6.1905 1.99812 4.82501 2.93217 3.73217C3.86621 2.63933 5.1285 1.87771 6.53077 1.56089C7.93304 1.24406 9.40016 1.38901 10.7133 1.97412M14.6666 2.73031L7.99998 9.40364L5.99998 7.40364" stroke="#0DCC5A" stroke-width="1.33333" stroke-linecap="round" stroke-linejoin="round"/>
</g>
<defs>
<clipPath id="clip0_1361_9158">
<rect width="16" height="16" fill="white" transform="translate(0 0.0635986)"/>
</clipPath>
</defs>
</svg>
